# xmcd
#
# Track frame offsets:
#	150
#	17660
#	33122
#	52950
#	71935
#	87090
#	101135
#	115900
#	133617
#	152528
#	167845
#	184628
#	203733
#	220016
#
# Disc length: 3164 seconds
#
# Revision: 0
# Processed by: cddbd v1.5.2PL0 Copyright (c) Steve Scherf et al.
# Submitted via: EasyCDDAExtractor 9.0.0.1
#
DISCID=b60c5a0e
DTITLE=Jordin Sparks - Jordin Sparks
DYEAR=2007
DGENRE=Pop
TTITLE0=Tattoo
TTITLE1=One Step at a Time
TTITLE2=No Air
TTITLE3=Freeze
TTITLE4=Shy Boy
TTITLE5=Now You Tell Me
TTITLE6=Next to You
TTITLE7=Just for the Record
TTITLE8=Permanent Monday
TTITLE9=Young and in Love
TTITLE10=See My Side
TTITLE11=God Loves Ugly
TTITLE12=Worth the Wait
TTITLE13=This Is My Now
EXTD=
EXTT0=
EXTT1=
EXTT2=
EXTT3=
EXTT4=
EXTT5=
EXTT6=
EXTT7=
EXTT8=
EXTT9=
EXTT10=
EXTT11=
EXTT12=
EXTT13=
PLAYORDER=
